<svg width="200" height="200" viewBox="0 0 200 200" fill="none" xmlns="http://www.w3.org/2000/svg">
<path opacity="0.7" d="M115.898 125.442C139.316 110.808 151.183 87.5551 142.403 73.5042C133.623 59.4533 107.521 59.9254 84.1026 74.5587C60.6844 89.192 48.8178 112.445 57.5978 126.496C66.3778 140.547 92.4796 140.075 115.898 125.442Z" stroke="#34D399" stroke-width="7.5"/>
<path opacity="0.85" d="M84.1024 125.441C107.521 140.075 133.622 140.547 142.402 126.496C151.182 112.445 139.316 89.1918 115.898 74.5585C92.4793 59.9251 66.3775 59.453 57.5975 73.5039C48.8175 87.5549 60.6842 110.808 84.1024 125.441Z" stroke="#047857" stroke-width="7.5"/>
<path d="M100 130C127.614 130 150 116.569 150 100C150 83.4315 127.614 70 100 70C72.3858 70 50 83.4315 50 100C50 116.569 72.3858 130 100 130Z" stroke="#059669" stroke-width="7.5"/>
</svg>
