<svg width="292" height="104" viewBox="0 0 292 104" fill="none" xmlns="http://www.w3.org/2000/svg">
<path opacity="0.7" d="M72.3198 67.8756C86.9327 58.7445 94.3375 44.2345 88.8588 35.4667C83.3801 26.6989 67.0926 26.9935 52.4796 36.1247C37.8667 45.2559 30.4619 59.7659 35.9406 68.5337C41.4193 77.3014 57.7068 77.0068 72.3198 67.8756Z" stroke="#34D399" stroke-width="4.68"/>
<path opacity="0.85" d="M52.4793 67.8752C67.0922 77.0064 83.3798 77.301 88.8585 68.5332C94.3372 59.7655 86.9324 45.2555 72.3195 36.1243C57.7065 26.9931 41.419 26.6985 35.9403 35.4663C30.4615 44.2341 37.8663 58.744 52.4793 67.8752Z" stroke="#34D399" stroke-width="4.68"/>
<path d="M62.3992 70.7193C79.6305 70.7193 93.5992 62.3381 93.5992 51.9993C93.5992 41.6605 79.6305 33.2793 62.3992 33.2793C45.1679 33.2793 31.1992 41.6605 31.1992 51.9993C31.1992 62.3381 45.1679 70.7193 62.3992 70.7193Z" stroke="#34D399" stroke-width="4.68"/>
<path d="M114.349 34.1526L123.78 60.8942H124.152L133.583 34.1526H137.616L125.951 65.9199H121.981L110.316 34.1526H114.349ZM149.529 66.4163C147.378 66.4163 145.491 65.9044 143.867 64.8807C142.254 63.8569 140.992 62.4247 140.082 60.584C139.183 58.7433 138.733 56.5924 138.733 54.1313C138.733 51.6495 139.183 49.483 140.082 47.632C140.992 45.781 142.254 44.3436 143.867 43.3199C145.491 42.2961 147.378 41.7842 149.529 41.7842C151.68 41.7842 153.562 42.2961 155.175 43.3199C156.798 44.3436 158.06 45.781 158.96 47.632C159.87 49.483 160.325 51.6495 160.325 54.1313C160.325 56.5924 159.87 58.7433 158.96 60.584C158.06 62.4247 156.798 63.8569 155.175 64.8807C153.562 65.9044 151.68 66.4163 149.529 66.4163ZM149.529 63.1279C151.163 63.1279 152.507 62.7091 153.562 61.8715C154.616 61.0338 155.397 59.9325 155.904 58.5675C156.411 57.2025 156.664 55.7238 156.664 54.1313C156.664 52.5388 156.411 51.0549 155.904 49.6795C155.397 48.3042 154.616 47.1925 153.562 46.3446C152.507 45.4966 151.163 45.0726 149.529 45.0726C147.895 45.0726 146.551 45.4966 145.496 46.3446C144.441 47.1925 143.66 48.3042 143.154 49.6795C142.647 51.0549 142.394 52.5388 142.394 54.1313C142.394 55.7238 142.647 57.2025 143.154 58.5675C143.66 59.9325 144.441 61.0338 145.496 61.8715C146.551 62.7091 147.895 63.1279 149.529 63.1279ZM169.573 34.1526V65.9199H165.913V34.1526H169.573ZM186.64 42.0945V45.1967H174.293V42.0945H186.64ZM177.891 36.3863H181.552V59.0949C181.552 60.129 181.702 60.9046 182.002 61.4216C182.312 61.9283 182.705 62.2696 183.181 62.4454C183.667 62.6108 184.179 62.6936 184.716 62.6936C185.12 62.6936 185.45 62.6729 185.709 62.6315C185.968 62.5798 186.174 62.5384 186.329 62.5074L187.074 65.7958C186.826 65.8889 186.479 65.982 186.035 66.075C185.59 66.1784 185.027 66.2301 184.344 66.2301C183.31 66.2301 182.297 66.0078 181.304 65.5632C180.321 65.1185 179.504 64.4412 178.853 63.5312C178.212 62.6212 177.891 61.4733 177.891 60.0876V36.3863ZM192.146 65.9199V42.0945H195.807V65.9199H192.146ZM194.008 38.1236C193.294 38.1236 192.679 37.8805 192.162 37.3945C191.655 36.9085 191.402 36.3242 191.402 35.6417C191.402 34.9592 191.655 34.375 192.162 33.889C192.679 33.4029 193.294 33.1599 194.008 33.1599C194.721 33.1599 195.331 33.4029 195.838 33.889C196.355 34.375 196.614 34.9592 196.614 35.6417C196.614 36.3242 196.355 36.9085 195.838 37.3945C195.331 37.8805 194.721 38.1236 194.008 38.1236ZM212.501 66.4163C210.205 66.4163 208.225 65.9096 206.56 64.8962C204.906 63.8724 203.629 62.4454 202.729 60.615C201.84 58.7744 201.395 56.6338 201.395 54.1933C201.395 51.7529 201.84 49.602 202.729 47.7406C203.629 45.8689 204.88 44.4108 206.483 43.3664C208.096 42.3116 209.978 41.7842 212.129 41.7842C213.37 41.7842 214.595 41.9911 215.805 42.4047C217.015 42.8183 218.116 43.4905 219.109 44.4212C220.102 45.3415 220.893 46.5617 221.482 48.0819C222.072 49.602 222.366 51.4737 222.366 53.697V55.2481H204.001V52.0838H218.644C218.644 50.7395 218.375 49.5399 217.837 48.4851C217.31 47.4304 216.555 46.5979 215.572 45.9878C214.6 45.3777 213.452 45.0726 212.129 45.0726C210.671 45.0726 209.409 45.4346 208.344 46.1584C207.289 46.872 206.477 47.8026 205.909 48.9505C205.34 50.0983 205.056 51.3289 205.056 52.6422V54.7517C205.056 56.5511 205.366 58.0763 205.986 59.3276C206.617 60.5685 207.491 61.5147 208.608 62.1662C209.724 62.8073 211.022 63.1279 212.501 63.1279C213.463 63.1279 214.331 62.9934 215.107 62.7246C215.893 62.4454 216.57 62.0317 217.139 61.4837C217.708 60.9253 218.147 60.2324 218.457 59.4051L221.994 60.3979C221.622 61.5974 220.996 62.6522 220.117 63.5622C219.238 64.4619 218.152 65.165 216.86 65.6717C215.567 66.1681 214.114 66.4163 212.501 66.4163ZM231.596 51.5874V65.9199H227.935V42.0945H231.471V45.8172H231.782C232.34 44.6073 233.188 43.6353 234.326 42.9011C235.463 42.1565 236.931 41.7842 238.731 41.7842C240.344 41.7842 241.755 42.1151 242.965 42.777C244.175 43.4284 245.116 44.4212 245.788 45.7551C246.461 47.0788 246.797 48.754 246.797 50.7808V65.9199H243.136V51.029C243.136 49.1573 242.65 47.6992 241.678 46.6548C240.706 45.6 239.372 45.0726 237.676 45.0726C236.507 45.0726 235.463 45.326 234.543 45.8327C233.633 46.3394 232.914 47.0788 232.387 48.0508C231.859 49.0229 231.596 50.2017 231.596 51.5874ZM263.848 42.0945V45.1967H251.5V42.0945H263.848ZM255.099 36.3863H258.76V59.0949C258.76 60.129 258.91 60.9046 259.21 61.4216C259.52 61.9283 259.913 62.2696 260.388 62.4454C260.875 62.6108 261.386 62.6936 261.924 62.6936C262.327 62.6936 262.658 62.6729 262.917 62.6315C263.175 62.5798 263.382 62.5384 263.537 62.5074L264.282 65.7958C264.034 65.8889 263.687 65.982 263.243 66.075C262.798 66.1784 262.234 66.2301 261.552 66.2301C260.518 66.2301 259.504 66.0078 258.512 65.5632C257.529 65.1185 256.712 64.4412 256.061 63.5312C255.42 62.6212 255.099 61.4733 255.099 60.0876V36.3863Z" fill="black"/>
</svg>
